{"asset":{"version":"2.0","generator":"THREE.GLTFExporter"},"scenes":[{"name":"AuxScene","nodes":[2]}],"scene":0,"nodes":[{"mesh":0},{"mesh":1},{"children":[0,1]}],"bufferViews":[{"buffer":0,"byteOffset":0,"byteLength":720,"target":34962,"byteStride":12},{"buffer":0,"byteOffset":720,"byteLength":480,"target":34962,"byteStride":8},{"buffer":0,"byteOffset":1200,"byteLength":720,"target":34962,"byteStride":12},{"buffer":0,"byteOffset":1920,"byteLength":554688,"target":34962,"byteStride":12},{"buffer":0,"byteOffset":556608,"byteLength":369792,"target":34962,"byteStride":8},{"buffer":0,"byteOffset":926400,"byteLength":554688,"target":34962,"byteStride":12}],"buffers":[{"byteLength":1481088,"uri":"data:application/octet-stream;base64,"}],"accessors":[{"bufferView":0,"componentType":5126,"count":60,"max":[0.4956265985965729,0.353344202041626,0.3029000163078308],"min":[-0.5043734312057495,0.3333442211151123,-0.1970999836921692],"type":"VEC3"},{"bufferView":1,"componentType":5126,"count":60,"max":[1,1],"min":[0,0],"type":"VEC2"},{"bufferView":2,"componentType":5126,"count":60,"max":[1,1,1],"min":[-1,-1,-1],"type":"VEC3"},{"bufferView":3,"componentType":5126,"count":46224,"max":[0.5356265902519226,0.353344202041626,0.34290003776550293],"min":[-0.5443733930587769,0.0033442142885178328,-0.2371000349521637],"type":"VEC3"},{"bufferView":4,"componentType":5126,"count":46224,"max":[0.9901960492134094,0.7632534503936768],"min":[0.009803922846913338,0.23674654960632324],"type":"VEC2"},{"bufferView":5,"componentType":5126,"count":46224,"max":[1,1,1],"min":[-1,-1,-1],"type":"VEC3"}],"materials":[{"pbrMetallicRoughness":{"metallicFactor":0.14000000059604645,"roughnessFactor":0,"baseColorTexture":{"index":0}}},{"pbrMetallicRoughness":{"baseColorFactor":[0,0,0,1],"metallicFactor":0,"roughnessFactor":0.20000000298023224}}],"textures":[{"sampler":0,"source":0}],"samplers":[{"magFilter":9729,"minFilter":9987,"wrapS":10497,"wrapT":10497}],"images":[{"mimeType":"image/png","uri":"data:image/png;base64,"}],"meshes":[{"primitives":[{"mode":4,"attributes":{"POSITION":0,"TEXCOORD_0":1,"TEXCOORD_1":1,"NORMAL":2},"material":0}]},{"primitives":[{"mode":4,"attributes":{"POSITION":3,"TEXCOORD_0":4,"TEXCOORD_1":4,"NORMAL":5},"material":1}]}]}