{"asset":{"version":"2.0","generator":"THREE.GLTFExporter"},"scenes":[{"name":"AuxScene","nodes":[2]}],"scene":0,"nodes":[{"mesh":0},{"mesh":1},{"children":[0,1]}],"bufferViews":[{"buffer":0,"byteOffset":0,"byteLength":4032,"target":34962,"byteStride":12},{"buffer":0,"byteOffset":4032,"byteLength":2688,"target":34962,"byteStride":8},{"buffer":0,"byteOffset":6720,"byteLength":4032,"target":34962,"byteStride":12},{"buffer":0,"byteOffset":10752,"byteLength":720,"target":34962,"byteStride":12},{"buffer":0,"byteOffset":11472,"byteLength":480,"target":34962,"byteStride":8},{"buffer":0,"byteOffset":11952,"byteLength":720,"target":34962,"byteStride":12}],"buffers":[{"byteLength":12672,"uri":"data:application/octet-stream;base64,"}],"accessors":[{"bufferView":0,"componentType":5126,"count":336,"max":[0.5862160325050354,0.7570725083351135,0.28139999508857727],"min":[-0.49378395080566406,0.007072505075484514,0.0013999991351738572],"type":"VEC3"},{"bufferView":1,"componentType":5126,"count":336,"max":[1,1],"min":[0,0],"type":"VEC2"},{"bufferView":2,"componentType":5126,"count":336,"max":[1,1,1],"min":[-1,-1,-1],"type":"VEC3"},{"bufferView":3,"componentType":5126,"count":60,"max":[0.5462160706520081,0.7570725083351135,0.24139998853206635],"min":[-0.45378395915031433,0.7370725274085999,0.0413999930024147],"type":"VEC3"},{"bufferView":4,"componentType":5126,"count":60,"max":[0.9901960492134094,0.5980392098426819],"min":[0.009803921915590763,0.4019607901573181],"type":"VEC2"},{"bufferView":5,"componentType":5126,"count":60,"max":[1,1,1],"min":[-1,-1,-1],"type":"VEC3"}],"materials":[{"pbrMetallicRoughness":{"metallicFactor":0.6499999761581421,"roughnessFactor":0.20999999344348907,"baseColorTexture":{"index":0}}},{"pbrMetallicRoughness":{"metallicFactor":0,"roughnessFactor":0.20000000298023224,"baseColorTexture":{"index":1}}}],"textures":[{"sampler":0,"source":0},{"sampler":1,"source":1}],"samplers":[{"magFilter":9729,"minFilter":9987,"wrapS":10497,"wrapT":10497},{"magFilter":9729,"minFilter":9987,"wrapS":10497,"wrapT":10497}],"images":[{"mimeType":"image/png","uri":"data:image/png;base64,"},{"mimeType":"image/png","uri":"data:image/png;base64,"}],"meshes":[{"primitives":[{"mode":4,"attributes":{"POSITION":0,"TEXCOORD_0":1,"TEXCOORD_1":1,"NORMAL":2},"material":0}]},{"primitives":[{"mode":4,"attributes":{"POSITION":3,"TEXCOORD_0":4,"TEXCOORD_1":4,"NORMAL":5},"material":1}]}]}